<svg width="86" height="86" viewBox="0 0 86 86" fill="none" xmlns="http://www.w3.org/2000/svg">
<g clip-path="url(#clip0_63_1378)">
<path d="M1.78713 2.23505C0.8538 3.16838 0.187134 4.76838 0.187134 5.83505C0.187134 7.03505 8.18713 15.835 17.7871 25.5684L35.5205 43.3017L17.7871 61.035C8.18713 70.7684 0.187134 79.5684 0.187134 80.7684C0.187134 83.3017 2.8538 85.9684 5.38713 85.9684C6.58713 85.9684 15.3871 77.9684 25.1205 68.3684L42.8538 50.635L60.5871 68.3684C70.3205 77.9684 79.1205 85.9684 80.3205 85.9684C82.8538 85.9684 85.5205 83.3017 85.5205 80.7684C85.5205 79.5684 77.5205 70.7684 67.9205 61.035L50.1871 43.3017L67.9205 25.5684C77.5205 15.835 85.5205 7.03505 85.5205 5.83505C85.5205 3.30171 82.8538 0.635046 80.3205 0.635046C79.1205 0.635046 70.3205 8.63505 60.5871 18.235L42.8538 35.9684L25.1205 18.235C15.3871 8.63505 6.58713 0.635046 5.38713 0.635046C4.32047 0.635046 2.72047 1.30171 1.78713 2.23505Z" fill="#FCFCFC"/>
</g>
<defs>
<clipPath id="clip0_63_1378">
<rect width="85.3333" height="85.3333" fill="white" transform="translate(0.187134 0.635071)"/>
</clipPath>
</defs>
</svg>
