<?xml version="1.0" standalone="no"?>
<!DOCTYPE svg PUBLIC "-//W3C//DTD SVG 20010904//EN"
 "http://www.w3.org/TR/2001/REC-SVG-20010904/DTD/svg10.dtd">
<svg version="1.0" xmlns="http://www.w3.org/2000/svg"
 width="64.000000pt" height="64.000000pt" viewBox="0 0 64.000000 64.000000"
 preserveAspectRatio="xMidYMid meet">

<g transform="translate(0.000000,64.000000) scale(0.100000,-0.100000)"
fill="#5e5e5e" stroke="#5e5e5e" stroke-width="12">
<path d="M20 540 c-19 -19 -20 -33 -20 -205 0 -117 4 -185 10 -185 6 0 10 53
10 140 l0 140 300 0 300 0 0 -153 c0 -106 -4 -157 -12 -165 -17 -17 -559 -17
-576 0 -6 6 -15 8 -19 4 -5 -4 1 -14 11 -22 16 -11 74 -14 298 -14 265 0 279
1 298 20 19 19 20 33 20 220 0 187 -1 201 -20 220 -20 20 -77 29 -65 10 3 -5
14 -10 24 -10 26 0 41 -20 41 -57 l0 -33 -300 0 -300 0 0 33 c0 18 5 38 12 45
9 9 78 12 249 12 148 0 240 4 244 10 4 7 -78 10 -239 10 -233 0 -247 -1 -266
-20z"/>
<path d="M151 511 c-13 -24 8 -55 34 -50 28 6 42 34 26 53 -18 22 -48 20 -60
-3z m44 -12 c10 -15 -1 -23 -20 -15 -9 3 -13 10 -10 16 8 13 22 13 30 -1z"/>
<path d="M68 508 c9 -9 8 -15 0 -26 -10 -11 -8 -13 7 -11 11 2 25 0 32 -4 8
-5 11 2 11 21 -1 25 -5 29 -31 30 -22 1 -27 -2 -19 -10z"/>
<path d="M68 353 c6 -2 18 -2 25 0 6 3 1 5 -13 5 -14 0 -19 -2 -12 -5z"/>
<path d="M157 353 c18 -2 50 -2 70 0 21 2 7 4 -32 4 -38 0 -55 -2 -38 -4z"/>
<path d="M467 343 c-7 -11 -37 -128 -37 -143 0 -32 20 8 35 70 15 63 16 96 2
73z"/>
<path d="M365 300 l-29 -30 32 -32 c36 -37 57 -30 22 7 l-23 25 21 23 c12 13
22 26 22 30 0 15 -17 6 -45 -23z"/>
<path d="M515 300 l29 -30 -29 -30 c-20 -21 -24 -30 -14 -30 9 0 28 13 43 29
l27 28 -26 32 c-15 17 -34 31 -43 31 -12 0 -8 -8 13 -30z"/>
<path d="M60 310 c0 -6 28 -10 65 -10 37 0 65 4 65 10 0 6 -28 10 -65 10 -37
0 -65 -4 -65 -10z"/>
<path d="M220 310 c0 -5 9 -10 20 -10 11 0 20 5 20 10 0 6 -9 10 -20 10 -11 0
-20 -4 -20 -10z"/>
<path d="M60 270 c0 -5 14 -10 30 -10 17 0 30 5 30 10 0 6 -13 10 -30 10 -16
0 -30 -4 -30 -10z"/>
<path d="M150 270 c0 -5 25 -10 55 -10 30 0 55 5 55 10 0 6 -25 10 -55 10 -30
0 -55 -4 -55 -10z"/>
<path d="M60 230 c0 -5 23 -10 51 -10 31 0 48 4 44 10 -8 13 -95 13 -95 0z"/>
<path d="M190 230 c0 -5 16 -10 36 -10 21 0 33 4 29 10 -3 6 -19 10 -36 10
-16 0 -29 -4 -29 -10z"/>
<path d="M60 180 c0 -5 4 -10 9 -10 6 0 13 5 16 10 3 6 -1 10 -9 10 -9 0 -16
-4 -16 -10z"/>
<path d="M120 180 c0 -6 28 -10 64 -10 36 0 68 5 71 10 4 6 -20 10 -64 10 -41
0 -71 -4 -71 -10z"/>
</g>
</svg>
