<?xml version="1.0" standalone="no"?>

<svg version="1.0" xmlns="http://www.w3.org/2000/svg"
 width="32.000000pt" height="32.000000pt" viewBox="0 0 32.000000 32.000000"
 preserveAspectRatio="xMidYMid meet">

<g transform="translate(0.000000,32.000000) scale(0.100000,-0.100000)"
fill="#a600ff" stroke="#a600ff" stroke-width="2">
<path d="M125 299 c-28 -6 -29 -7 -7 -14 16 -5 22 -15 22 -36 0 -24 -4 -29
-24 -29 -13 0 -30 10 -39 23 l-16 22 0 -22 c-1 -12 4 -25 10 -29 8 -4 8 -9 0
-17 -14 -14 -14 -60 0 -74 8 -8 8 -13 0 -17 -15 -9 -14 -59 1 -74 16 -16 63
-15 77 1 6 8 14 28 17 45 5 26 11 32 33 32 15 0 32 5 39 12 15 15 16 60 1 75
-8 8 -8 13 0 17 15 10 14 61 -1 74 -17 13 -76 19 -113 11z m100 -48 c0 -18 -7
-26 -27 -32 -27 -7 -28 -6 -28 28 0 32 2 34 28 31 21 -2 27 -8 27 -27z m-80
-91 c0 -26 -4 -30 -28 -30 -15 0 -30 7 -33 15 -10 26 4 45 33 45 24 0 28 -4
28 -30z m80 0 c0 -18 -6 -26 -23 -28 -24 -4 -38 18 -28 44 3 9 15 14 28 12 17
-2 23 -10 23 -28z m-75 -71 c0 -23 -22 -49 -41 -49 -22 0 -34 22 -25 45 6 17
66 21 66 4z" />
</g>
</svg>
