<svg width="56" height="58" viewBox="0 0 56 58" fill="none" xmlns="http://www.w3.org/2000/svg">
<path d="M1.46612 1.27251C0.0389702 2.61645 1.28773 4.76676 10.6534 17.9374L20.465 31.7352V43.3828C20.465 51.7152 20.8218 55.3887 21.7138 56.643C22.8734 58.2557 23.0517 58.2557 28.4036 56.195C36.5205 53.1488 36.5205 53.1488 36.5205 41.77V31.9144L46.4213 17.9374C51.7731 10.3217 56.1438 3.33322 55.9654 2.52686C55.6978 1.27251 52.8435 1.09332 28.8495 0.824528C14.1321 0.734932 1.82291 0.914124 1.46612 1.27251ZM52.5759 3.78121C52.5759 4.04999 48.4728 9.96335 43.567 16.9519C38.572 24.03 34.1122 30.9289 33.7554 32.452C33.3094 33.8856 32.9526 38.8134 32.9526 43.2932V51.536L28.7603 52.9696C26.4412 53.7759 24.4789 54.4031 24.3005 54.4031C24.1221 54.4031 24.0329 49.8337 24.0329 44.1891C24.0329 38.5446 23.6761 32.9 23.1409 31.6456C22.695 30.4809 18.3243 23.7612 13.3293 16.7727C8.42347 9.87375 4.40961 3.9604 4.40961 3.78121C4.40961 3.51242 15.2916 3.33322 28.4928 3.33322C41.7831 3.33322 52.5759 3.51242 52.5759 3.78121Z" fill="#FCFCFC"/>
</svg>
