<svg width="65" height="65" viewBox="0 0 65 65" fill="none" xmlns="http://www.w3.org/2000/svg">
<path opacity="0.984" fill-rule="evenodd" clip-rule="evenodd" d="M3.68713 11.8018C22.3538 11.8018 41.0204 11.8018 59.6871 11.8018C59.6871 13.1351 59.6871 14.4685 59.6871 15.8018C41.0204 15.8018 22.3538 15.8018 3.68713 15.8018C3.68713 14.4685 3.68713 13.1351 3.68713 11.8018Z" fill="#FCFCFC"/>
<path opacity="0.982" fill-rule="evenodd" clip-rule="evenodd" d="M3.68713 29.8018C19.6871 29.8018 35.6871 29.8018 51.6871 29.8018C51.6871 31.1351 51.6871 32.4685 51.6871 33.8018C35.6871 33.8018 19.6871 33.8018 3.68713 33.8018C3.68713 32.4685 3.68713 31.1351 3.68713 29.8018Z" fill="#FCFCFC"/>
<path opacity="0.971" fill-rule="evenodd" clip-rule="evenodd" d="M3.68713 47.8018C13.6871 47.8018 23.6871 47.8018 33.6871 47.8018C33.6871 49.1351 33.6871 50.4685 33.6871 51.8018C23.6871 51.8018 13.6871 51.8018 3.68713 51.8018C3.68713 50.4685 3.68713 49.1351 3.68713 47.8018Z" fill="#FCFCFC"/>
</svg>
