<svg width="86" height="86" viewBox="0 0 86 86" fill="none" xmlns="http://www.w3.org/2000/svg">
<path d="M29.1871 31.3018L17.1871 43.3018L30.1205 56.2351C42.5205 68.6351 43.3205 69.1684 45.4538 66.9018C47.7205 64.7684 47.1871 64.1018 37.1871 53.9684L26.5205 43.3018L36.2538 33.5684C41.4538 28.2351 45.8538 22.9018 45.8538 21.5684C45.8538 16.7684 40.6538 19.7018 29.1871 31.3018Z" fill="#FCFCFC"/>
<path d="M50.5205 31.3018L38.5205 43.3018L51.4538 56.2351C63.8538 68.6351 64.6538 69.1684 66.7872 66.9018C69.0538 64.7684 68.5205 64.1018 58.5205 53.9684L47.8538 43.3018L57.5872 33.5684C62.7872 28.2351 67.1872 22.9018 67.1872 21.5684C67.1872 16.7684 61.9872 19.7018 50.5205 31.3018Z" fill="#FCFCFC"/>
</svg>
