<?xml version="1.0" standalone="no"?>
<!DOCTYPE svg PUBLIC "-//W3C//DTD SVG 20010904//EN"
 "http://www.w3.org/TR/2001/REC-SVG-20010904/DTD/svg10.dtd">
<svg version="1.0" xmlns="http://www.w3.org/2000/svg"
 width="64.000000pt" height="64.000000pt" viewBox="0 0 64.000000 64.000000"
 preserveAspectRatio="xMidYMid meet">

<g transform="translate(0.000000,64.000000) scale(0.100000,-0.100000)"
fill="#001dc2" stroke="#001dc2" stroke-width="20">
<path d="M62 577 c-21 -22 -22 -31 -20 -203 l2 -179 6 177 c4 152 8 180 23
195 15 16 43 19 200 23 l182 6 -186 2 c-182 2 -186 2 -207 -21z"/>
<path d="M504 591 c84 -12 86 -17 86 -273 l0 -219 -25 -24 -24 -25 -219 0
c-253 0 -260 2 -272 81 l-7 44 -2 -46 c-1 -36 4 -50 22 -67 23 -21 31 -22 258
-22 233 0 236 0 257 23 21 23 22 31 22 258 0 233 0 236 -23 257 -18 17 -35 22
-73 21 l-49 -2 49 -6z"/>
<path d="M157 483 c-4 -3 -7 -19 -7 -35 0 -21 7 -32 25 -40 22 -10 29 -9 47
10 19 18 20 25 10 47 -8 18 -19 25 -40 25 -16 0 -32 -3 -35 -7z m58 -33 c0
-18 -6 -26 -23 -28 -27 -4 -40 22 -22 44 19 22 45 13 45 -16z"/>
<path d="M150 265 l0 -115 45 0 45 0 0 115 0 115 -45 0 -45 0 0 -115z m70 0
l0 -105 -30 0 -30 0 0 105 0 105 30 0 30 0 0 -105z"/>
<path d="M270 264 l0 -114 40 0 39 0 3 78 c3 75 4 77 28 77 24 0 25 -2 28 -77
l3 -78 39 0 40 0 0 95 c0 128 -6 134 -130 134 l-90 -1 0 -114z m60 91 c0 -19
9 -19 34 0 29 22 64 18 91 -10 22 -22 25 -32 25 -105 0 -79 0 -80 -25 -80 -24
0 -25 2 -25 63 0 68 -18 107 -50 107 -32 0 -50 -39 -50 -107 0 -61 -1 -63 -25
-63 l-25 0 0 105 0 105 25 0 c16 0 25 -6 25 -15z"/>
</g>
</svg>
