<svg width="31" height="51" viewBox="0 0 31 51" fill="none" xmlns="http://www.w3.org/2000/svg">
<g clip-path="url(#clip0_63_1388)">
<path d="M8.39286 25.2621C6.37829 26.8763 4.78019 28.798 3.68992 30.9174C2.59966 33.0368 2.03851 35.3124 2.03851 37.6144C2.03851 39.9163 2.59966 42.1994 3.68993 44.3335C4.78019 46.4675 6.37829 48.4106 8.39286 50.0519L23.7334 37.76L8.39286 25.2621Z" fill="#FFD200"/>
<path d="M23.2399 12.8518C25.2544 14.493 26.8525 16.4361 27.9427 18.5701C29.033 20.7042 29.5942 22.9873 29.5942 25.2893C29.5942 27.5912 29.033 29.8668 27.9427 31.9862C26.8525 34.1056 25.2545 36.0273 23.2399 37.6415L7.89923 25.1437L23.2399 12.8518Z" fill="#E3073C"/>
<path d="M8.3962 25.2315C6.38164 23.5904 4.78361 21.6471 3.69334 19.5132C2.60307 17.3792 2.04193 15.0958 2.04193 12.7941C2.04193 10.4919 2.60307 8.2165 3.69334 6.0972C4.78361 3.9779 6.38163 2.05604 8.3962 0.441957L23.7369 12.9397L8.3962 25.2315Z" fill="#1F84EF"/>
</g>
<defs>
<clipPath id="clip0_63_1388">
<rect width="49.5079" height="31.0007" fill="white" transform="matrix(-4.37114e-08 -1 0.999977 0.0067113 0 49.9517)"/>
</clipPath>
</defs>
</svg>
