<svg width="94" height="95" viewBox="0 0 94 95" fill="none" xmlns="http://www.w3.org/2000/svg">
<g clip-path="url(#clip0_63_1387)">
<path d="M47.212 34.5426C43.8207 34.5437 40.4622 35.2173 37.3287 36.5249C34.195 37.8325 31.3475 39.7485 28.9487 42.1635C26.5498 44.5785 24.6466 47.4452 23.3477 50.5999C22.0489 53.7546 21.3798 57.1357 21.3787 60.5499L47.2033 60.5411L47.212 34.5426Z" fill="#FFD200"/>
<path d="M47.2381 60.5435C50.6294 60.5424 53.9878 59.8688 57.1214 58.5611C60.255 57.2536 63.1025 55.3375 65.5014 52.9225C67.9002 50.5076 69.8037 47.6406 71.1024 44.486C72.4012 41.3313 73.0706 37.9501 73.0716 34.5361L47.2468 34.5449L47.2381 60.5435Z" fill="#06E07F"/>
<path d="M47.2033 60.5728C47.2022 63.987 46.5331 67.368 45.2342 70.5226C43.9353 73.6774 42.0322 76.544 39.6333 78.9591C37.2344 81.3741 34.387 83.2901 31.2533 84.5977C28.1197 85.9053 24.7613 86.5789 21.37 86.5801L21.3786 60.5815L47.2033 60.5728Z" fill="#E3073C"/>
<path d="M47.2468 34.5133C47.2477 31.0993 47.9171 27.7181 49.2158 24.5635C50.5146 21.4089 52.4181 18.5419 54.8167 16.1271C57.2159 13.7118 60.0631 11.7961 63.1966 10.4886C66.3302 9.18106 69.6887 8.50722 73.08 8.5062L73.0714 34.5047L47.2468 34.5133Z" fill="#1F84EF"/>
</g>
<defs>
<clipPath id="clip0_63_1387">
<rect width="95.6389" height="37.7038" fill="white" transform="matrix(0.70473 -0.709476 0.70473 0.709476 0 67.8535)"/>
</clipPath>
</defs>
</svg>
