<svg width="77" height="63" viewBox="0 0 77 63" fill="none" xmlns="http://www.w3.org/2000/svg">
<path d="M65.9747 1.79837C64.8402 5.07562 65.0923 5.8319 66.6049 3.31095C67.3612 2.05047 67.7393 0.66394 67.3612 0.411844C67.1091 0.0337001 66.4789 0.66394 65.9747 1.79837Z" fill="#FCFCFC"/>
<path d="M69.756 5.58009C68.3695 6.58847 67.6132 7.72291 67.9914 8.10105C68.3695 8.47919 70.0081 7.72291 71.6467 6.33638C75.05 3.43728 73.4114 2.80704 69.756 5.58009Z" fill="#FCFCFC"/>
<path d="M4.21112 11.3783C0.429682 18.6891 0.177586 23.3528 2.3204 44.781C3.20274 53.4783 4.33717 59.1504 5.4716 60.4109C6.98417 62.0495 12.4042 62.3016 38.3701 62.3016C62.0671 62.3016 69.5039 61.9235 69.8821 60.663C70.2602 59.9067 69.63 59.1504 68.6216 59.1504C67.109 59.1504 66.983 58.2681 67.7393 54.3606C68.3695 51.8397 69.1258 44.6549 69.63 38.3525C70.1342 32.0501 70.7644 25.9998 71.0165 24.8654C71.3946 23.6049 70.5123 21.7142 69.1258 20.4537C67.3611 18.9412 66.4788 16.7983 66.4788 13.6471C66.4788 5.20194 65.3443 4.94984 34.7147 4.94984H7.61441L4.21112 11.3783ZM63.7057 9.73966C64.462 10.8741 65.2183 13.269 65.2183 15.2858V18.8151H54.7563C45.1767 18.8151 43.9162 18.563 41.2692 15.6639C38.3701 12.6388 37.7399 12.5127 22.7402 12.5127C8.24465 12.5127 7.23627 12.3867 7.23627 10.1178C7.23627 8.73128 7.99256 7.34475 8.87489 6.96661C9.63118 6.58847 21.9839 6.58847 36.2273 6.96661C57.7815 7.59685 62.3192 7.97499 63.7057 9.73966ZM41.0171 17.5546C44.9246 21.21 45.4288 21.3361 56.3949 21.3361C65.0922 21.3361 67.9914 21.7142 68.4955 23.1007C68.8737 24.1091 68.4955 32.1762 67.4872 41.1256L65.8485 57.2597L36.6054 57.6379L7.48836 57.89L6.73208 51.9657C4.84136 35.9576 3.32878 16.1681 4.08507 15.0337C4.58926 14.2774 11.5219 13.7732 20.9755 13.7732H37.1096L41.0171 17.5546Z" fill="#FCFCFC"/>
<path d="M45.0503 27.1337C45.0503 27.89 45.6805 29.0244 46.5629 29.9067C47.5713 30.9151 47.5713 31.7975 46.3108 33.31C45.3024 34.4445 45.3024 35.2007 46.0587 35.2007C46.815 35.2007 47.8233 34.5705 48.2015 33.8142C48.8317 32.9319 49.9662 33.31 51.4787 34.6966C53.9997 36.9654 54.882 35.4528 52.3611 32.9319C51.3527 31.9235 51.3527 31.0412 52.6132 29.5286C53.6216 28.3942 53.6216 27.6379 52.8653 27.6379C52.109 27.6379 51.1006 28.2681 50.7224 29.0244C50.0922 29.9067 48.9578 29.5286 47.4452 28.1421C46.1847 27.0076 45.0503 26.5034 45.0503 27.1337Z" fill="#FCFCFC"/>
<path d="M14.799 28.3948C14.799 29.0251 15.4292 30.2855 16.3115 31.1679C17.446 32.3023 17.446 33.0586 16.3115 34.193C13.9166 36.5879 14.5469 37.9745 17.1939 36.4619C18.5804 35.8316 20.7232 35.5796 21.9837 36.0837C23.8744 36.714 24.0004 36.4619 22.74 35.2014C21.4795 33.8149 21.6055 33.0586 23.2442 31.1679C25.8912 28.1427 24.3786 26.6302 21.3534 29.2772C19.2106 31.1679 18.9585 31.1679 16.9418 29.2772C15.8073 28.0167 14.799 27.6385 14.799 28.3948Z" fill="#FCFCFC"/>
<path d="M31.8158 43.6471C28.5385 44.5295 23.6227 47.8067 23.6227 49.1932C23.6227 49.8235 25.5134 49.1932 27.7823 47.8067C32.6981 44.7816 39.6308 44.5295 43.5383 47.3025C45.1769 48.4369 46.8155 49.0672 47.1936 48.689C48.202 47.5546 42.0257 44.1513 37.9921 43.5211C35.9754 43.269 33.2023 43.269 31.8158 43.6471Z" fill="#FCFCFC"/>
<path d="M69.6303 11.2519C68.6219 12.8905 72.7815 12.8905 75.3025 11.2519C76.815 10.2435 76.4369 9.99139 73.7899 9.99139C71.8992 9.99139 70.0084 10.4956 69.6303 11.2519Z" fill="#FCFCFC"/>
</svg>
