<svg width="86" height="86" viewBox="0 0 86 86" fill="none" xmlns="http://www.w3.org/2000/svg">
<path d="M18.8538 20.1018C17.2538 21.8351 18.5871 23.5684 27.6538 32.7684L38.1871 43.3018L27.5205 53.9684C17.5205 64.1018 16.9871 64.7684 19.2538 66.9018C21.3871 69.1684 22.1871 68.6351 34.5871 56.2351L47.5205 43.3018L34.8538 30.6351C27.9205 23.7018 21.7871 17.9684 21.3871 17.9684C20.8538 17.9684 19.7871 18.9018 18.8538 20.1018Z" fill="#FCFCFC"/>
<path d="M39.7872 20.9018C39.3872 21.8351 43.7872 27.3018 49.2538 32.9018L59.5205 43.3018L48.8538 53.9684C38.8538 64.1018 38.3205 64.7684 40.5872 66.9018C42.7205 69.1684 43.5205 68.6351 55.9205 56.2351L68.8539 43.3018L56.8539 31.3018C45.5205 19.8351 41.1205 17.3018 39.7872 20.9018Z" fill="#FCFCFC"/>
</svg>
