<svg width="85" height="85" viewBox="0 0 85 85" fill="none" xmlns="http://www.w3.org/2000/svg">
<path d="M33.8125 63.3198C40.9814 63.3198 47.4987 60.7781 52.5821 56.4767L75.3925 79.287C75.9139 79.8084 76.5656 80.0691 77.2825 80.0691C77.9994 80.0691 78.6511 79.8084 79.1725 79.287C80.2153 78.2443 80.2153 76.5498 79.1725 75.507L56.3621 52.6967C60.5983 47.6132 63.2052 41.0308 63.2052 33.927C63.2052 17.6991 50.0404 4.53424 33.8125 4.53424C17.6497 4.53424 4.41968 17.7642 4.41968 33.927C4.41968 50.155 17.6497 63.3198 33.8125 63.3198ZM33.8125 9.87838C47.1076 9.87838 57.8611 20.697 57.8611 33.927C57.8611 47.2222 47.1076 57.9757 33.8125 57.9757C20.5173 57.9757 9.76382 47.157 9.76382 33.927C9.76382 20.697 20.5824 9.87838 33.8125 9.87838Z" fill="#FCFCFC"/>
</svg>
