<svg width="65" height="65" viewBox="0 0 65 65" fill="none" xmlns="http://www.w3.org/2000/svg">
<g clip-path="url(#clip0_63_1377)">
<path opacity="0.776" fill-rule="evenodd" clip-rule="evenodd" d="M63.6871 22.8018C63.6871 24.4685 63.6871 26.1351 63.6871 27.8018C59.3557 31.9651 54.8557 35.9651 50.1871 39.8018C50.5082 46.2442 51.6749 52.5775 53.6871 58.8018C53.2413 61.3882 51.7413 62.7215 49.1871 62.8018C43.142 60.196 37.3086 57.196 31.6871 53.8018C26.5821 56.3969 21.5821 59.2303 16.6871 62.3018C13.0592 63.6178 10.7259 62.4511 9.68713 58.8018C11.6993 52.5775 12.866 46.2442 13.1871 39.8018C8.51857 35.9651 4.01857 31.9651 -0.312866 27.8018C-0.312866 26.1351 -0.312866 24.4685 -0.312866 22.8018C6.59773 21.3744 13.5977 20.2078 20.6871 19.3018C23.3158 13.8766 25.8158 8.37655 28.1871 2.80176C30.5204 0.135091 32.8538 0.135091 35.1871 2.80176C37.5584 8.37655 40.0584 13.8766 42.6871 19.3018C49.7918 20.141 56.7918 21.3076 63.6871 22.8018ZM30.6871 8.80176C31.5635 8.67088 32.2302 9.00421 32.6871 9.80176C34.6358 14.8646 36.9691 19.698 39.6871 24.3018C45.6598 25.2084 51.6598 25.8751 57.6871 26.3018C52.8343 30.1571 48.3343 34.3238 44.1871 38.8018C45.0627 44.843 46.0627 50.843 47.1871 56.8018C42.3923 53.1546 37.2256 50.1546 31.6871 47.8018C26.1486 50.1546 20.9819 53.1546 16.1871 56.8018C16.0204 56.4685 15.8538 56.1351 15.6871 55.8018C17.4419 50.1927 18.6086 44.526 19.1871 38.8018C15.0399 34.3238 10.5399 30.1571 5.68713 26.3018C11.7144 25.8751 17.7144 25.2084 23.6871 24.3018C26.6926 19.4561 29.0259 14.2894 30.6871 8.80176Z" fill="#FCFCFC"/>
</g>
<defs>
<clipPath id="clip0_63_1377">
<rect width="64" height="64" fill="white" transform="translate(0.187134 0.301758)"/>
</clipPath>
</defs>
</svg>
